STARTFONT 2.1
COMMENT ======================================================================
COMMENT  This is the Goha WP font hacked for Linux consoles by Daniel Yacob for
COMMENT  Goha-16.psf.
COMMENT 
COMMENT  Yitna Firdiywek of GohaTibeb Associates has placed the Goha WP package
COMMENT  and these fonts into the publice domain under the GNU General Public
COMMENT  License vs 2.0 :-  ybf2u@virginia.edu
COMMENT 
COMMENT  Available at:  ftp://ftp.cs.indiana.edu/pub/fidel/fonts/linux/
COMMENT ======================================================================
FONT -MicroEmacs-ZemenFixed-Medium-R-Normal--16-150-100-100-M-160-Ethiopic-Unicode
SIZE 16 100 100
FONTBOUNDINGBOX 8 14 0 0
STARTPROPERTIES 5
COPYRIGHT "GNU GPL 2.0"
DEFAULT_CHAR 318
FONT_ASCENT 6
FONT_DESCENT 2
_XMBDFED_INFO "Edited with xmbdfed 4.3."
ENDPROPERTIES
CHARS 389
STARTCHAR a2ab
ENCODING 0
SWIDTH 360 0
DWIDTH 8 0
BBX 6 10 0 0
BITMAP
CC
CC
CC
CC
CC
CC
CC
CC
48
78
ENDCHAR
STARTCHAR a2f3
ENCODING 1
SWIDTH 360 0
DWIDTH 8 0
BBX 7 10 0 0
BITMAP
CC
CC
CC
CC
CE
CC
CC
CC
48
78
ENDCHAR
STARTCHAR a2f4
ENCODING 2
SWIDTH 360 0
DWIDTH 8 0
BBX 7 10 0 2
BITMAP
C6
C6
C6
C6
EC
0C
0C
18
1A
1E
ENDCHAR
STARTCHAR a2f5
ENCODING 3
SWIDTH 360 0
DWIDTH 8 0
BBX 7 10 0 2
BITMAP
C6
C6
C6
C6
EE
0C
0C
18
18
18
ENDCHAR
STARTCHAR a2f6
ENCODING 4
SWIDTH 360 0
DWIDTH 8 0
BBX 7 10 0 2
BITMAP
C6
C6
C6
C6
EC
0C
18
1E
1A
1E
ENDCHAR
STARTCHAR a2f7
ENCODING 5
SWIDTH 360 0
DWIDTH 8 0
BBX 6 10 1 2
BITMAP
CC
CC
CC
CC
6C
6C
CC
CC
C8
78
ENDCHAR
STARTCHAR a2f8
ENCODING 6
SWIDTH 360 0
DWIDTH 8 0
BBX 8 10 0 2
BITMAP
C7
CD
CD
CF
CC
CC
CC
CC
48
78
ENDCHAR
STARTCHAR 013e
ENCODING 7
SWIDTH 360 0
DWIDTH 8 0
BBX 0 0 0 0
BITMAP
ENDCHAR
STARTCHAR a2af
ENCODING 8
SWIDTH 360 0
DWIDTH 8 0
BBX 6 11 1 1
BITMAP
60
30
18
2C
CC
CC
CC
CC
CC
CC
CC
ENDCHAR
STARTCHAR a3ad
ENCODING 9
SWIDTH 360 0
DWIDTH 8 0
BBX 7 11 1 1
BITMAP
60
30
18
2C
CC
CE
CE
CC
CC
CC
CC
ENDCHAR
STARTCHAR a3ae
ENCODING 10
SWIDTH 360 0
DWIDTH 8 0
BBX 7 11 1 1
BITMAP
60
30
18
2C
CC
CC
CC
CC
CC
CE
CE
ENDCHAR
STARTCHAR a3af
ENCODING 11
SWIDTH 360 0
DWIDTH 8 0
BBX 6 11 1 1
BITMAP
60
30
18
2C
CC
CC
CC
CC
0C
0C
0C
ENDCHAR
STARTCHAR a3b0
ENCODING 12
SWIDTH 360 0
DWIDTH 8 0
BBX 7 11 1 1
BITMAP
60
30
18
2C
CC
CC
CC
CC
CE
CA
CE
ENDCHAR
STARTCHAR a3b1
ENCODING 13
SWIDTH 360 0
DWIDTH 8 0
BBX 6 11 1 1
BITMAP
60
30
18
2C
CC
CC
CC
CC
EC
AC
EC
ENDCHAR
STARTCHAR a3b2
ENCODING 14
SWIDTH 360 0
DWIDTH 8 0
BBX 7 11 0 1
BITMAP
60
30
18
2C
CE
CA
CE
CC
CC
CC
CC
ENDCHAR
STARTCHAR a3af
ENCODING 15
SWIDTH 360 0
DWIDTH 8 0
BBX 8 13 0 0
BITMAP
60
30
18
2C
CC
CC
CC
CC
0C
0C
0C
33
33
ENDCHAR
STARTCHAR 000f
ENCODING 16
SWIDTH 360 0
DWIDTH 8 0
BBX 7 11 0 2
BITMAP
10
10
10
10
7C
D6
D6
D6
D6
D6
D6
ENDCHAR
STARTCHAR 0010
ENCODING 17
SWIDTH 360 0
DWIDTH 8 0
BBX 7 11 0 2
BITMAP
20
20
20
20
70
A8
AE
AE
A8
A8
A8
ENDCHAR
STARTCHAR 0011
ENCODING 18
SWIDTH 360 0
DWIDTH 8 0
BBX 8 11 0 2
BITMAP
10
10
10
10
7C
D6
D6
D6
D6
D4
D7
ENDCHAR
STARTCHAR 0012
ENCODING 19
SWIDTH 360 0
DWIDTH 8 0
BBX 7 11 0 2
BITMAP
10
10
10
10
7C
D6
D6
D6
06
06
06
ENDCHAR
STARTCHAR 0013
ENCODING 20
SWIDTH 360 0
DWIDTH 8 0
BBX 8 11 0 2
BITMAP
10
10
10
10
7C
D6
D6
D6
D7
D1
D7
ENDCHAR
STARTCHAR 0014
ENCODING 21
SWIDTH 360 0
DWIDTH 8 0
BBX 7 11 0 2
BITMAP
60
30
10
10
7C
D6
D6
D6
D6
D6
D6
ENDCHAR
STARTCHAR 0015
ENCODING 22
SWIDTH 360 0
DWIDTH 8 0
BBX 7 11 0 2
BITMAP
10
10
10
10
7C
D6
D6
D6
C0
C0
C0
ENDCHAR
STARTCHAR 0016
ENCODING 23
SWIDTH 360 0
DWIDTH 8 0
BBX 8 11 0 2
BITMAP
10
10
10
7C
D6
D6
D6
06
06
1F
1B
ENDCHAR
STARTCHAR a2b0
ENCODING 24
SWIDTH 360 0
DWIDTH 8 0
BBX 7 7 0 3
BITMAP
7C
EE
AA
AA
AA
AA
EE
ENDCHAR
STARTCHAR a3b3
ENCODING 25
SWIDTH 360 0
DWIDTH 8 0
BBX 8 7 0 3
BITMAP
7C
EE
AA
AB
AB
AE
EE
ENDCHAR
STARTCHAR a3b4
ENCODING 26
SWIDTH 360 0
DWIDTH 8 0
BBX 8 10 0 1
BITMAP
FE
EE
AA
AA
AA
EE
06
06
06
07
ENDCHAR
STARTCHAR a3b5
ENCODING 27
SWIDTH 360 0
DWIDTH 8 0
BBX 7 9 0 2
BITMAP
FE
EE
AA
AA
AE
E6
06
06
06
ENDCHAR
STARTCHAR a3b6
ENCODING 28
SWIDTH 360 0
DWIDTH 8 0
BBX 8 9 0 2
BITMAP
FE
EE
AA
AA
AA
E6
07
05
07
ENDCHAR
STARTCHAR a3b7
ENCODING 29
SWIDTH 360 0
DWIDTH 8 0
BBX 8 9 0 2
BITMAP
7F
77
55
55
77
30
60
C0
C0
ENDCHAR
STARTCHAR a3b8
ENCODING 30
SWIDTH 360 0
DWIDTH 8 0
BBX 7 8 1 3
BITMAP
FE
EE
AA
AA
EE
60
60
60
ENDCHAR
STARTCHAR a3b5
ENCODING 31
SWIDTH 360 0
DWIDTH 8 0
BBX 8 11 0 0
BITMAP
FE
EE
AA
AA
AE
E6
06
06
06
1B
1B
ENDCHAR
STARTCHAR 001f
ENCODING 32
SWIDTH 360 0
DWIDTH 8 0
BBX 7 9 0 3
BITMAP
D6
D6
D6
D6
D6
D6
DC
D0
70
ENDCHAR
STARTCHAR 0020
ENCODING 33
SWIDTH 360 0
DWIDTH 8 0
BBX 8 9 0 3
BITMAP
D4
D4
D4
D7
D7
D4
DC
D0
70
ENDCHAR
STARTCHAR 0021
ENCODING 34
SWIDTH 360 0
DWIDTH 8 0
BBX 7 12 0 1
BITMAP
D6
D6
D6
D6
D6
7E
06
06
0C
18
18
1E
ENDCHAR
STARTCHAR 0022
ENCODING 35
SWIDTH 360 0
DWIDTH 8 0
BBX 7 11 0 2
BITMAP
D6
D6
D6
D6
D6
7E
06
06
06
06
06
ENDCHAR
STARTCHAR 0023
ENCODING 36
SWIDTH 360 0
DWIDTH 8 0
BBX 7 12 0 1
BITMAP
D6
D6
D6
D6
D6
7E
06
0C
18
1E
12
1E
ENDCHAR
STARTCHAR 0024
ENCODING 37
SWIDTH 360 0
DWIDTH 8 0
BBX 7 11 0 2
BITMAP
6A
6A
6A
6A
6A
7C
E0
C0
C0
C0
C0
ENDCHAR
STARTCHAR 0025
ENCODING 38
SWIDTH 360 0
DWIDTH 8 0
BBX 7 11 0 2
BITMAP
D6
D6
D6
D6
7C
30
30
30
60
60
60
ENDCHAR
STARTCHAR 0026
ENCODING 39
SWIDTH 360 0
DWIDTH 8 0
BBX 8 12 0 1
BITMAP
D6
D6
D6
D6
D6
7E
06
06
06
06
3F
33
ENDCHAR
STARTCHAR a2b5
ENCODING 40
SWIDTH 360 0
DWIDTH 8 0
BBX 7 10 0 2
BITMAP
18
18
18
38
60
C0
C0
80
8E
FE
ENDCHAR
STARTCHAR a3d1
ENCODING 41
SWIDTH 360 0
DWIDTH 8 0
BBX 7 10 0 2
BITMAP
18
18
18
70
C0
86
FE
18
18
18
ENDCHAR
STARTCHAR a3d2
ENCODING 42
SWIDTH 360 0
DWIDTH 8 0
BBX 7 10 0 2
BITMAP
0C
0C
0C
38
70
C0
CC
82
9E
FC
ENDCHAR
STARTCHAR a3d3
ENCODING 43
SWIDTH 360 0
DWIDTH 8 0
BBX 7 10 0 2
BITMAP
0C
0C
0C
38
70
C0
CE
96
B6
F0
ENDCHAR
STARTCHAR a3d4
ENCODING 44
SWIDTH 360 0
DWIDTH 8 0
BBX 7 10 0 2
BITMAP
0C
0C
0C
38
70
C0
CE
8A
9A
FE
ENDCHAR
STARTCHAR a3d5
ENCODING 45
SWIDTH 360 0
DWIDTH 8 0
BBX 7 10 1 2
BITMAP
7E
C6
C0
C0
C0
C0
C0
C0
C6
FE
ENDCHAR
STARTCHAR a3d6
ENCODING 46
SWIDTH 360 0
DWIDTH 8 0
BBX 7 10 1 2
BITMAP
7E
CA
CA
CE
C0
C0
C0
C0
C6
FE
ENDCHAR
STARTCHAR a3d3
ENCODING 47
SWIDTH 360 0
DWIDTH 8 0
BBX 8 11 0 2
BITMAP
33
3F
0C
0C
38
70
C0
CE
96
B6
F0
ENDCHAR
STARTCHAR a2a6
ENCODING 48
SWIDTH 360 0
DWIDTH 8 0
BBX 6 10 1 2
BITMAP
30
30
30
CC
CC
CC
CC
CC
CC
CC
ENDCHAR
STARTCHAR a2d5
ENCODING 49
SWIDTH 360 0
DWIDTH 8 0
BBX 7 10 1 2
BITMAP
30
30
CC
CC
CE
CE
CC
CC
CC
CC
ENDCHAR
STARTCHAR a2d6
ENCODING 50
SWIDTH 360 0
DWIDTH 8 0
BBX 7 10 1 2
BITMAP
30
30
CC
CC
CC
CC
CC
CC
CE
CE
ENDCHAR
STARTCHAR a2d7
ENCODING 51
SWIDTH 360 0
DWIDTH 8 0
BBX 6 10 1 2
BITMAP
30
30
CC
CC
CC
CC
CC
CC
0C
0C
ENDCHAR
STARTCHAR a2d8
ENCODING 52
SWIDTH 360 0
DWIDTH 8 0
BBX 8 10 0 2
BITMAP
30
30
CC
CC
CC
CC
CF
CD
CD
CF
ENDCHAR
STARTCHAR a2d9
ENCODING 53
SWIDTH 360 0
DWIDTH 8 0
BBX 6 10 1 2
BITMAP
C0
60
30
CC
CC
CC
CC
CC
CC
CC
ENDCHAR
STARTCHAR a2da
ENCODING 54
SWIDTH 360 0
DWIDTH 8 0
BBX 6 10 1 2
BITMAP
30
30
CC
CC
CC
CC
CC
CC
C0
C0
ENDCHAR
STARTCHAR a2d7
ENCODING 55
SWIDTH 360 0
DWIDTH 8 0
BBX 8 12 0 0
BITMAP
30
30
CC
CC
CC
CC
CC
CC
0C
0C
33
33
ENDCHAR
STARTCHAR a2b8
ENCODING 56
SWIDTH 360 0
DWIDTH 8 0
BBX 8 10 0 2
BITMAP
FF
DB
18
66
66
66
66
66
66
66
ENDCHAR
STARTCHAR a1fb
ENCODING 57
SWIDTH 360 0
DWIDTH 8 0
BBX 8 10 0 2
BITMAP
FF
DB
18
66
66
67
67
66
66
66
ENDCHAR
STARTCHAR a1fa
ENCODING 58
SWIDTH 360 0
DWIDTH 8 0
BBX 8 10 0 2
BITMAP
FF
DB
18
66
66
66
66
66
67
67
ENDCHAR
STARTCHAR a1f9
ENCODING 59
SWIDTH 360 0
DWIDTH 8 0
BBX 8 10 0 2
BITMAP
FF
DB
18
66
66
66
66
06
06
06
ENDCHAR
STARTCHAR a1f8
ENCODING 60
SWIDTH 360 0
DWIDTH 8 0
BBX 8 10 0 2
BITMAP
FF
DB
18
66
66
66
67
65
65
67
ENDCHAR
STARTCHAR a1f7
ENCODING 61
SWIDTH 360 0
DWIDTH 8 0
BBX 7 10 0 2
BITMAP
FE
B6
30
18
66
66
66
66
66
66
ENDCHAR
STARTCHAR a1f6
ENCODING 62
SWIDTH 360 0
DWIDTH 8 0
BBX 8 10 0 2
BITMAP
FF
DB
18
66
66
66
66
66
60
60
ENDCHAR
STARTCHAR a1f9
ENCODING 63
SWIDTH 360 0
DWIDTH 8 0
BBX 8 12 0 0
BITMAP
FF
DB
18
66
66
66
66
06
06
06
1B
1B
ENDCHAR
STARTCHAR a2ae
ENCODING 64
SWIDTH 360 0
DWIDTH 8 0
BBX 8 11 0 1
BITMAP
18
18
7E
DB
DB
DB
DB
7E
18
18
18
ENDCHAR
STARTCHAR a3a7
ENCODING 65
SWIDTH 360 0
DWIDTH 8 0
BBX 8 11 0 1
BITMAP
18
18
7E
DB
DB
DB
DB
7E
18
1F
18
ENDCHAR
STARTCHAR a3a8
ENCODING 66
SWIDTH 360 0
DWIDTH 8 0
BBX 8 11 0 1
BITMAP
18
18
7E
DB
DB
DB
DB
7C
18
1B
1F
ENDCHAR
STARTCHAR a3a9
ENCODING 67
SWIDTH 360 0
DWIDTH 8 0
BBX 8 11 0 1
BITMAP
18
18
7E
DB
DB
DB
DB
7E
18
70
60
ENDCHAR
STARTCHAR a3aa
ENCODING 68
SWIDTH 360 0
DWIDTH 8 0
BBX 8 11 0 1
BITMAP
18
18
7E
DB
DB
DB
DA
78
1F
1D
1F
ENDCHAR
STARTCHAR a3ab
ENCODING 69
SWIDTH 360 0
DWIDTH 8 0
BBX 8 12 0 1
BITMAP
60
60
18
7E
DB
DB
DB
DB
7E
18
18
18
ENDCHAR
STARTCHAR a3ac
ENCODING 70
SWIDTH 360 0
DWIDTH 8 0
BBX 8 12 0 1
BITMAP
18
66
66
18
7E
DB
DB
DB
7E
18
18
18
ENDCHAR
STARTCHAR 013e
ENCODING 71
SWIDTH 360 0
DWIDTH 8 0
BBX 0 0 0 0
BITMAP
ENDCHAR
STARTCHAR 0046
ENCODING 72
SWIDTH 360 0
DWIDTH 8 0
BBX 8 11 0 2
BITMAP
18
18
18
7E
DB
DB
7E
1F
1D
1F
18
ENDCHAR
STARTCHAR 013e
ENCODING 73
SWIDTH 360 0
DWIDTH 8 0
BBX 0 0 0 0
BITMAP
ENDCHAR
STARTCHAR 0047
ENCODING 74
SWIDTH 360 0
DWIDTH 8 0
BBX 8 11 0 2
BITMAP
10
11
11
7D
D7
D7
7C
10
10
10
10
ENDCHAR
STARTCHAR 0048
ENCODING 75
SWIDTH 360 0
DWIDTH 8 0
BBX 8 11 0 2
BITMAP
18
18
7E
DB
DB
7E
18
18
18
7E
42
ENDCHAR
STARTCHAR 0049
ENCODING 76
SWIDTH 360 0
DWIDTH 8 0
BBX 8 11 0 2
BITMAP
18
18
18
7E
DB
DB
7E
18
1E
1A
7E
ENDCHAR
STARTCHAR 004a
ENCODING 77
SWIDTH 360 0
DWIDTH 8 0
BBX 8 11 0 2
BITMAP
10
10
10
7C
D7
D7
7D
11
11
10
10
ENDCHAR
STARTCHAR 013e
ENCODING 78
SWIDTH 360 0
DWIDTH 8 0
BBX 0 0 0 0
BITMAP
ENDCHAR
STARTCHAR 013e
ENCODING 79
SWIDTH 360 0
DWIDTH 8 0
BBX 0 0 0 0
BITMAP
ENDCHAR
STARTCHAR a2ae
ENCODING 80
SWIDTH 360 0
DWIDTH 8 0
BBX 8 11 0 1
BITMAP
18
18
7E
DB
DB
DB
DB
7E
18
18
18
ENDCHAR
STARTCHAR a3a7
ENCODING 81
SWIDTH 360 0
DWIDTH 8 0
BBX 8 11 0 1
BITMAP
18
18
7E
DB
DB
DB
DB
7E
18
1F
18
ENDCHAR
STARTCHAR a3a8
ENCODING 82
SWIDTH 360 0
DWIDTH 8 0
BBX 8 11 0 1
BITMAP
18
18
7E
DB
DB
DB
DB
7C
18
1B
1F
ENDCHAR
STARTCHAR a3a9
ENCODING 83
SWIDTH 360 0
DWIDTH 8 0
BBX 8 11 0 1
BITMAP
18
18
7E
DB
DB
DB
DB
7E
18
70
60
ENDCHAR
STARTCHAR a3aa
ENCODING 84
SWIDTH 360 0
DWIDTH 8 0
BBX 8 11 0 1
BITMAP
18
18
7E
DB
DB
DB
DA
78
1F
1D
1F
ENDCHAR
STARTCHAR a3ab
ENCODING 85
SWIDTH 360 0
DWIDTH 8 0
BBX 8 12 0 1
BITMAP
60
60
18
7E
DB
DB
DB
DB
7E
18
18
18
ENDCHAR
STARTCHAR a3ac
ENCODING 86
SWIDTH 360 0
DWIDTH 8 0
BBX 8 12 0 1
BITMAP
18
66
66
18
7E
DB
DB
DB
7E
18
18
18
ENDCHAR
STARTCHAR 013e
ENCODING 87
SWIDTH 360 0
DWIDTH 8 0
BBX 0 0 0 0
BITMAP
ENDCHAR
STARTCHAR 0052
ENCODING 88
SWIDTH 360 0
DWIDTH 8 0
BBX 8 11 0 2
BITMAP
7E
18
18
7E
DB
DB
7E
1F
1D
1F
18
ENDCHAR
STARTCHAR 013e
ENCODING 89
SWIDTH 360 0
DWIDTH 8 0
BBX 0 0 0 0
BITMAP
ENDCHAR
STARTCHAR 0053
ENCODING 90
SWIDTH 360 0
DWIDTH 8 0
BBX 8 11 0 2
BITMAP
7E
19
19
7F
DB
DB
7E
18
18
18
18
ENDCHAR
STARTCHAR 0054
ENCODING 91
SWIDTH 360 0
DWIDTH 8 0
BBX 8 11 0 2
BITMAP
7E
18
7E
DB
DB
7E
18
18
18
7E
42
ENDCHAR
STARTCHAR 0055
ENCODING 92
SWIDTH 360 0
DWIDTH 8 0
BBX 8 11 0 2
BITMAP
7E
18
18
7E
DB
DB
7E
18
1E
1A
7E
ENDCHAR
STARTCHAR 0056
ENCODING 93
SWIDTH 360 0
DWIDTH 8 0
BBX 8 11 0 2
BITMAP
7E
18
18
7E
DB
DB
7F
19
19
18
18
ENDCHAR
STARTCHAR 013e
ENCODING 94
SWIDTH 360 0
DWIDTH 8 0
BBX 0 0 0 0
BITMAP
ENDCHAR
STARTCHAR 013e
ENCODING 95
SWIDTH 360 0
DWIDTH 8 0
BBX 0 0 0 0
BITMAP
ENDCHAR
STARTCHAR a2a5
ENCODING 96
SWIDTH 360 0
DWIDTH 8 0
BBX 6 10 1 2
BITMAP
78
48
CC
CC
CC
CC
CC
CC
CC
CC
ENDCHAR
STARTCHAR a2cf
ENCODING 97
SWIDTH 360 0
DWIDTH 8 0
BBX 8 10 0 2
BITMAP
78
48
CC
CC
CF
CC
CC
CC
CC
CC
ENDCHAR
STARTCHAR a2d0
ENCODING 98
SWIDTH 360 0
DWIDTH 8 0
BBX 8 10 0 2
BITMAP
78
48
CC
CC
CC
CC
CC
CC
CF
CF
ENDCHAR
STARTCHAR a2d1
ENCODING 99
SWIDTH 360 0
DWIDTH 8 0
BBX 6 10 1 2
BITMAP
78
48
CC
CC
CC
CC
CC
0C
0C
0C
ENDCHAR
STARTCHAR a2d2
ENCODING 100
SWIDTH 360 0
DWIDTH 8 0
BBX 8 10 0 2
BITMAP
78
48
CC
CC
CC
CC
CF
CD
CD
CF
ENDCHAR
STARTCHAR a2d3
ENCODING 101
SWIDTH 360 0
DWIDTH 8 0
BBX 8 10 0 2
BITMAP
1E
12
33
33
F3
33
33
33
33
33
ENDCHAR
STARTCHAR a2d4
ENCODING 102
SWIDTH 360 0
DWIDTH 8 0
BBX 6 10 1 2
BITMAP
78
48
CC
CC
CC
CC
CC
C0
C0
C0
ENDCHAR
STARTCHAR a2d1
ENCODING 103
SWIDTH 360 0
DWIDTH 8 0
BBX 8 12 0 0
BITMAP
78
48
CC
CC
CC
CC
CC
0C
0C
0C
33
33
ENDCHAR
STARTCHAR 005f
ENCODING 104
SWIDTH 360 0
DWIDTH 8 0
BBX 7 11 0 2
BITMAP
FE
00
3C
46
C6
C6
C6
C6
C6
C6
C6
ENDCHAR
STARTCHAR 0060
ENCODING 105
SWIDTH 360 0
DWIDTH 8 0
BBX 8 11 0 2
BITMAP
FC
00
38
4C
CC
CC
CF
CF
CC
CC
CC
ENDCHAR
STARTCHAR 0061
ENCODING 106
SWIDTH 360 0
DWIDTH 8 0
BBX 8 11 0 2
BITMAP
FC
00
38
4C
CC
CC
CC
CC
CC
CF
CF
ENDCHAR
STARTCHAR 0062
ENCODING 107
SWIDTH 360 0
DWIDTH 8 0
BBX 7 11 0 2
BITMAP
FE
00
3C
46
C6
C6
C6
C6
06
06
06
ENDCHAR
STARTCHAR 0063
ENCODING 108
SWIDTH 360 0
DWIDTH 8 0
BBX 8 11 0 2
BITMAP
FC
00
38
4C
CC
CC
CC
CC
CF
C9
CF
ENDCHAR
STARTCHAR 0064
ENCODING 109
SWIDTH 360 0
DWIDTH 8 0
BBX 8 11 0 2
BITMAP
7F
00
1E
23
63
63
E3
E3
63
63
63
ENDCHAR
STARTCHAR 0065
ENCODING 110
SWIDTH 360 0
DWIDTH 8 0
BBX 7 11 0 2
BITMAP
FE
00
3C
46
C6
C6
C6
C6
C0
C0
C0
ENDCHAR
STARTCHAR 0062
ENCODING 111
SWIDTH 360 0
DWIDTH 8 0
BBX 8 13 0 0
BITMAP
FE
00
3C
46
C6
C6
C6
C6
06
06
06
1B
1B
ENDCHAR
STARTCHAR a2b7
ENCODING 112
SWIDTH 360 0
DWIDTH 8 0
BBX 8 9 0 2
BITMAP
18
18
18
FF
DB
18
18
18
18
ENDCHAR
STARTCHAR a3dd
ENCODING 113
SWIDTH 360 0
DWIDTH 8 0
BBX 8 10 0 2
BITMAP
18
18
18
FF
DB
18
1F
1B
18
18
ENDCHAR
STARTCHAR a3de
ENCODING 114
SWIDTH 360 0
DWIDTH 8 0
BBX 8 10 0 2
BITMAP
18
18
18
FF
DB
18
18
18
1B
1F
ENDCHAR
STARTCHAR a3df
ENCODING 115
SWIDTH 360 0
DWIDTH 8 0
BBX 8 10 0 2
BITMAP
18
18
18
FF
DB
18
30
60
60
60
ENDCHAR
STARTCHAR a3e0
ENCODING 116
SWIDTH 360 0
DWIDTH 8 0
BBX 8 10 0 2
BITMAP
18
18
18
FF
DB
18
18
1F
19
1F
ENDCHAR
STARTCHAR a3e1
ENCODING 117
SWIDTH 360 0
DWIDTH 8 0
BBX 8 10 0 2
BITMAP
60
60
18
FF
DB
18
18
18
18
18
ENDCHAR
STARTCHAR a3e2
ENCODING 118
SWIDTH 360 0
DWIDTH 8 0
BBX 8 11 0 2
BITMAP
18
66
66
18
FF
DB
18
18
18
18
18
ENDCHAR
STARTCHAR a2b7
ENCODING 119
SWIDTH 360 0
DWIDTH 8 0
BBX 8 11 0 0
BITMAP
18
18
18
FF
DB
18
18
18
18
66
66
ENDCHAR
STARTCHAR a2b9
ENCODING 120
SWIDTH 360 0
DWIDTH 8 0
BBX 8 10 0 2
BITMAP
FF
DB
18
18
FF
DB
18
18
18
18
ENDCHAR
STARTCHAR a1f5
ENCODING 121
SWIDTH 360 0
DWIDTH 8 0
BBX 8 10 0 2
BITMAP
FF
DB
18
18
FF
DB
18
1E
18
18
ENDCHAR
STARTCHAR a1f4
ENCODING 122
SWIDTH 360 0
DWIDTH 8 0
BBX 8 10 0 2
BITMAP
FF
DB
18
18
FF
DB
18
18
18
1E
ENDCHAR
STARTCHAR a1f3
ENCODING 123
SWIDTH 360 0
DWIDTH 8 0
BBX 8 10 0 2
BITMAP
FF
DB
18
18
FF
DB
18
18
70
60
ENDCHAR
STARTCHAR a1f2
ENCODING 124
SWIDTH 360 0
DWIDTH 8 0
BBX 8 10 0 2
BITMAP
FF
DB
18
18
FF
DB
18
1E
1A
1E
ENDCHAR
STARTCHAR a1f1
ENCODING 125
SWIDTH 360 0
DWIDTH 8 0
BBX 8 10 0 2
BITMAP
FC
6C
60
18
18
FF
DB
18
18
18
ENDCHAR
STARTCHAR a1f0
ENCODING 126
SWIDTH 360 0
DWIDTH 8 0
BBX 8 10 0 2
BITMAP
7E
18
66
66
18
FF
DB
18
18
18
ENDCHAR
STARTCHAR a2b9
ENCODING 127
SWIDTH 360 0
DWIDTH 8 0
BBX 8 12 0 0
BITMAP
FF
DB
18
18
FF
DB
18
18
18
18
66
66
ENDCHAR
STARTCHAR 0077
ENCODING 128
SWIDTH 360 0
DWIDTH 8 0
BBX 7 11 0 2
BITMAP
18
F8
18
0E
06
06
06
06
06
06
06
ENDCHAR
STARTCHAR 0078
ENCODING 129
SWIDTH 360 0
DWIDTH 8 0
BBX 8 11 0 2
BITMAP
18
F8
18
0E
06
06
07
06
06
06
06
ENDCHAR
STARTCHAR 0079
ENCODING 130
SWIDTH 360 0
DWIDTH 8 0
BBX 8 11 0 2
BITMAP
18
F8
18
0E
06
06
06
06
06
06
07
ENDCHAR
STARTCHAR 007a
ENCODING 131
SWIDTH 360 0
DWIDTH 8 0
BBX 7 11 0 2
BITMAP
18
F8
18
0E
06
06
06
06
0C
18
30
ENDCHAR
STARTCHAR 007b
ENCODING 132
SWIDTH 360 0
DWIDTH 8 0
BBX 8 11 0 2
BITMAP
18
F8
18
0E
06
06
06
06
0F
09
0F
ENDCHAR
STARTCHAR 007c
ENCODING 133
SWIDTH 360 0
DWIDTH 8 0
BBX 7 11 0 2
BITMAP
18
78
D8
CE
06
06
06
06
06
06
06
ENDCHAR
STARTCHAR 007d
ENCODING 134
SWIDTH 360 0
DWIDTH 8 0
BBX 8 10 0 2
BITMAP
0F
1D
7B
D8
CE
06
06
06
06
06
ENDCHAR
STARTCHAR 013e
ENCODING 135
SWIDTH 360 0
DWIDTH 8 0
BBX 0 0 0 0
BITMAP
ENDCHAR
STARTCHAR 007e
ENCODING 136
SWIDTH 360 0
DWIDTH 8 0
BBX 8 11 0 2
BITMAP
30
F0
37
1D
0F
0C
0C
0C
0C
0C
0C
ENDCHAR
STARTCHAR 013e
ENCODING 137
SWIDTH 360 0
DWIDTH 8 0
BBX 0 0 0 0
BITMAP
ENDCHAR
STARTCHAR 007f
ENCODING 138
SWIDTH 360 0
DWIDTH 8 0
BBX 8 11 0 2
BITMAP
30
F0
30
1C
0D
0D
0F
0D
0D
0C
0C
ENDCHAR
STARTCHAR 0080
ENCODING 139
SWIDTH 360 0
DWIDTH 8 0
BBX 8 11 0 2
BITMAP
30
F0
30
1C
0C
0C
0C
0C
0C
3F
21
ENDCHAR
STARTCHAR 0081
ENCODING 140
SWIDTH 360 0
DWIDTH 8 0
BBX 8 11 0 2
BITMAP
30
F0
30
1C
0C
0C
0C
0F
0D
3F
40
ENDCHAR
STARTCHAR 0082
ENCODING 141
SWIDTH 360 0
DWIDTH 8 0
BBX 8 11 0 2
BITMAP
30
F1
31
1F
0D
0D
0C
0C
0C
0C
0C
ENDCHAR
STARTCHAR 013e
ENCODING 142
SWIDTH 360 0
DWIDTH 8 0
BBX 0 0 0 0
BITMAP
ENDCHAR
STARTCHAR 013e
ENCODING 143
SWIDTH 360 0
DWIDTH 8 0
BBX 0 0 0 0
BITMAP
ENDCHAR
STARTCHAR a2b1
ENCODING 144
SWIDTH 360 0
DWIDTH 8 0
BBX 5 10 1 2
BITMAP
C0
C0
C0
D8
18
30
30
60
60
60
ENDCHAR
STARTCHAR a3b9
ENCODING 145
SWIDTH 360 0
DWIDTH 8 0
BBX 6 10 2 2
BITMAP
C0
C0
C0
D8
18
30
3C
60
60
60
ENDCHAR
STARTCHAR a3ba
ENCODING 146
SWIDTH 360 0
DWIDTH 8 0
BBX 6 10 2 2
BITMAP
C0
C0
C0
D8
18
30
30
60
60
7C
ENDCHAR
STARTCHAR a3bb
ENCODING 147
SWIDTH 360 0
DWIDTH 8 0
BBX 6 10 1 2
BITMAP
7C
CC
C0
C0
C0
CC
FC
0C
0C
0C
ENDCHAR
STARTCHAR a3bc
ENCODING 148
SWIDTH 360 0
DWIDTH 8 0
BBX 5 10 2 2
BITMAP
C0
C0
C0
D8
18
30
30
78
68
78
ENDCHAR
STARTCHAR a3bd
ENCODING 149
SWIDTH 360 0
DWIDTH 8 0
BBX 6 10 1 2
BITMAP
FC
CC
18
30
0C
0C
18
30
30
30
ENDCHAR
STARTCHAR a3be
ENCODING 150
SWIDTH 360 0
DWIDTH 8 0
BBX 7 10 1 2
BITMAP
7E
CA
CE
C0
C0
CC
FC
0C
0C
0C
ENDCHAR
STARTCHAR a3bb
ENCODING 151
SWIDTH 360 0
DWIDTH 8 0
BBX 8 12 0 0
BITMAP
7C
CC
C0
C0
C0
CC
FC
0C
0C
0C
33
33
ENDCHAR
STARTCHAR a2b2
ENCODING 152
SWIDTH 360 0
DWIDTH 8 0
BBX 8 10 0 2
BITMAP
FF
DB
18
0E
06
0C
0C
18
18
18
ENDCHAR
STARTCHAR a3bf
ENCODING 153
SWIDTH 360 0
DWIDTH 8 0
BBX 8 10 0 2
BITMAP
FF
DB
18
1E
06
0C
0F
18
18
18
ENDCHAR
STARTCHAR a3c0
ENCODING 154
SWIDTH 360 0
DWIDTH 8 0
BBX 8 10 0 2
BITMAP
FF
DB
18
1E
06
0C
0C
18
18
1E
ENDCHAR
STARTCHAR a3c1
ENCODING 155
SWIDTH 360 0
DWIDTH 8 0
BBX 8 11 0 2
BITMAP
FF
DB
3C
66
60
60
60
66
7E
06
06
ENDCHAR
STARTCHAR a3c2
ENCODING 156
SWIDTH 360 0
DWIDTH 8 0
BBX 8 10 0 2
BITMAP
FF
DB
18
1E
06
0C
0C
1E
1A
1E
ENDCHAR
STARTCHAR a3c3
ENCODING 157
SWIDTH 360 0
DWIDTH 8 0
BBX 8 11 0 2
BITMAP
FF
DB
3C
66
6E
18
06
06
0C
0C
0C
ENDCHAR
STARTCHAR a3c4
ENCODING 158
SWIDTH 360 0
DWIDTH 8 0
BBX 8 11 0 2
BITMAP
FF
D9
3E
65
67
60
6C
7C
0C
0C
0C
ENDCHAR
STARTCHAR a3c1
ENCODING 159
SWIDTH 360 0
DWIDTH 8 0
BBX 8 13 0 0
BITMAP
FF
DB
3C
66
60
60
60
66
7E
06
06
19
19
ENDCHAR
STARTCHAR a2a4
ENCODING 160
SWIDTH 360 0
DWIDTH 8 0
BBX 6 10 1 2
BITMAP
C0
C0
F8
18
30
4C
CC
CC
CC
CC
ENDCHAR
STARTCHAR a2c9
ENCODING 161
SWIDTH 360 0
DWIDTH 8 0
BBX 8 10 0 2
BITMAP
C0
C0
F8
18
30
4C
CC
CF
CC
CC
ENDCHAR
STARTCHAR a2ca
ENCODING 162
SWIDTH 360 0
DWIDTH 8 0
BBX 8 10 0 2
BITMAP
C0
C0
F8
18
30
4C
CC
CC
CF
CF
ENDCHAR
STARTCHAR a2cb
ENCODING 163
SWIDTH 360 0
DWIDTH 8 0
BBX 6 10 1 2
BITMAP
C0
C0
F8
18
30
4C
CC
CC
0C
0C
ENDCHAR
STARTCHAR a2cc
ENCODING 164
SWIDTH 360 0
DWIDTH 8 0
BBX 8 10 0 2
BITMAP
C0
C0
F8
18
30
4C
CF
CD
CD
CF
ENDCHAR
STARTCHAR a2cd
ENCODING 165
SWIDTH 360 0
DWIDTH 8 0
BBX 7 10 0 2
BITMAP
C0
F0
3C
0C
18
26
66
66
66
66
ENDCHAR
STARTCHAR a2ce
ENCODING 166
SWIDTH 360 0
DWIDTH 8 0
BBX 6 10 1 2
BITMAP
C0
C0
F8
18
30
4C
CC
CC
C0
C0
ENDCHAR
STARTCHAR a2a4
ENCODING 167
SWIDTH 360 0
DWIDTH 8 0
BBX 8 11 0 2
BITMAP
84
FC
30
3E
06
0C
13
33
33
33
33
ENDCHAR
STARTCHAR a2b4
ENCODING 168
SWIDTH 360 0
DWIDTH 8 0
BBX 7 10 1 2
BITMAP
C0
C0
DC
E6
66
66
66
66
66
66
ENDCHAR
STARTCHAR a3cb
ENCODING 169
SWIDTH 360 0
DWIDTH 8 0
BBX 8 10 0 2
BITMAP
C0
C0
D8
6C
6C
6C
6F
6C
6C
6C
ENDCHAR
STARTCHAR a3cc
ENCODING 170
SWIDTH 360 0
DWIDTH 8 0
BBX 8 10 0 2
BITMAP
C0
C0
D8
6C
6C
6C
6C
6C
6C
6F
ENDCHAR
STARTCHAR a3cd
ENCODING 171
SWIDTH 360 0
DWIDTH 8 0
BBX 7 10 1 2
BITMAP
C0
C0
DC
66
66
66
66
66
06
06
ENDCHAR
STARTCHAR a3ce
ENCODING 172
SWIDTH 360 0
DWIDTH 8 0
BBX 7 10 1 2
BITMAP
C0
C0
D8
6C
6C
6C
6E
6A
6A
6E
ENDCHAR
STARTCHAR a3cf
ENCODING 173
SWIDTH 360 0
DWIDTH 8 0
BBX 7 10 0 2
BITMAP
C0
C0
DC
66
66
36
66
66
66
66
ENDCHAR
STARTCHAR a3d0
ENCODING 174
SWIDTH 360 0
DWIDTH 8 0
BBX 7 10 1 2
BITMAP
C0
C0
DC
66
66
66
66
66
60
60
ENDCHAR
STARTCHAR 013e
ENCODING 175
SWIDTH 360 0
DWIDTH 8 0
BBX 0 0 0 0
BITMAP
ENDCHAR
STARTCHAR 00a2
ENCODING 176
SWIDTH 360 0
DWIDTH 8 0
BBX 8 11 0 2
BITMAP
80
87
BD
67
66
66
66
66
66
66
66
ENDCHAR
STARTCHAR 013e
ENCODING 177
SWIDTH 360 0
DWIDTH 8 0
BBX 0 0 0 0
BITMAP
ENDCHAR
STARTCHAR 00a3
ENCODING 178
SWIDTH 360 0
DWIDTH 8 0
BBX 8 11 0 2
BITMAP
80
80
B8
64
64
65
65
67
65
65
64
ENDCHAR
STARTCHAR 00a4
ENCODING 179
SWIDTH 360 0
DWIDTH 8 0
BBX 8 11 0 2
BITMAP
80
80
BC
66
66
66
66
06
06
1F
11
ENDCHAR
STARTCHAR 00a5
ENCODING 180
SWIDTH 360 0
DWIDTH 8 0
BBX 8 11 0 2
BITMAP
80
80
BC
66
66
66
06
07
05
07
1C
ENDCHAR
STARTCHAR 00a6
ENCODING 181
SWIDTH 360 0
DWIDTH 8 0
BBX 8 11 0 2
BITMAP
80
81
B9
67
65
65
64
64
64
64
64
ENDCHAR
STARTCHAR 013e
ENCODING 182
SWIDTH 360 0
DWIDTH 8 0
BBX 0 0 0 0
BITMAP
ENDCHAR
STARTCHAR 013e
ENCODING 183
SWIDTH 360 0
DWIDTH 8 0
BBX 0 0 0 0
BITMAP
ENDCHAR
STARTCHAR 00a7
ENCODING 184
SWIDTH 360 0
DWIDTH 8 0
BBX 7 12 0 2
BITMAP
10
30
E0
9C
66
66
66
66
66
66
66
66
ENDCHAR
STARTCHAR 00a8
ENCODING 185
SWIDTH 360 0
DWIDTH 8 0
BBX 8 12 0 2
BITMAP
10
30
E0
9C
66
66
66
67
67
66
66
66
ENDCHAR
STARTCHAR 00a9
ENCODING 186
SWIDTH 360 0
DWIDTH 8 0
BBX 8 12 0 2
BITMAP
10
30
E0
9C
66
66
66
66
66
66
66
67
ENDCHAR
STARTCHAR 00aa
ENCODING 187
SWIDTH 360 0
DWIDTH 8 0
BBX 7 12 0 2
BITMAP
10
30
E0
9C
66
66
66
66
06
06
06
06
ENDCHAR
STARTCHAR 00ab
ENCODING 188
SWIDTH 360 0
DWIDTH 8 0
BBX 8 12 0 2
BITMAP
10
30
E0
9C
66
66
66
66
66
67
65
67
ENDCHAR
STARTCHAR 00ac
ENCODING 189
SWIDTH 360 0
DWIDTH 8 0
BBX 8 12 0 2
BITMAP
10
30
E0
9E
33
33
33
1B
1B
1B
1B
1B
ENDCHAR
STARTCHAR 00ad
ENCODING 190
SWIDTH 360 0
DWIDTH 8 0
BBX 7 12 0 2
BITMAP
10
30
E0
9C
66
66
66
66
66
60
60
60
ENDCHAR
STARTCHAR 013e
ENCODING 191
SWIDTH 360 0
DWIDTH 8 0
BBX 0 0 0 0
BITMAP
ENDCHAR
STARTCHAR 00ae
ENCODING 192
SWIDTH 360 0
DWIDTH 8 0
BBX 8 12 0 2
BITMAP
10
30
E0
9F
65
67
66
66
66
66
66
66
ENDCHAR
STARTCHAR 00af
ENCODING 193
SWIDTH 360 0
DWIDTH 8 0
BBX 8 12 0 2
BITMAP
10
30
E0
98
64
65
65
67
65
65
64
64
ENDCHAR
STARTCHAR 013e
ENCODING 194
SWIDTH 360 0
DWIDTH 8 0
BBX 0 0 0 0
BITMAP
ENDCHAR
STARTCHAR 00b0
ENCODING 195
SWIDTH 360 0
DWIDTH 8 0
BBX 8 12 0 2
BITMAP
10
30
E0
9C
66
66
66
66
06
06
1F
11
ENDCHAR
STARTCHAR 00b1
ENCODING 196
SWIDTH 360 0
DWIDTH 8 0
BBX 8 12 0 2
BITMAP
10
30
E0
9C
7C
66
66
66
0F
09
3F
60
ENDCHAR
STARTCHAR 00b2
ENCODING 197
SWIDTH 360 0
DWIDTH 8 0
BBX 8 12 0 2
BITMAP
10
30
E2
9A
66
65
65
64
64
64
64
64
ENDCHAR
STARTCHAR 013e
ENCODING 198
SWIDTH 360 0
DWIDTH 8 0
BBX 0 0 0 0
BITMAP
ENDCHAR
STARTCHAR 013e
ENCODING 199
SWIDTH 360 0
DWIDTH 8 0
BBX 0 0 0 0
BITMAP
ENDCHAR
STARTCHAR 00b3
ENCODING 200
SWIDTH 360 0
DWIDTH 8 0
BBX 7 8 0 3
BITMAP
7C
D6
D6
D6
D6
D6
D6
7C
ENDCHAR
STARTCHAR a1ef
ENCODING 201
SWIDTH 360 0
DWIDTH 8 0
BBX 8 9 0 2
BITMAP
7C
7E
D6
D6
D6
D6
D6
57
7D
ENDCHAR
STARTCHAR a1ee
ENCODING 202
SWIDTH 360 0
DWIDTH 8 0
BBX 8 9 0 2
BITMAP
7E
DB
DB
DB
7E
18
18
18
1E
ENDCHAR
STARTCHAR a1ed
ENCODING 203
SWIDTH 360 0
DWIDTH 8 0
BBX 8 9 0 2
BITMAP
7E
DB
DB
DB
7E
18
18
18
18
ENDCHAR
STARTCHAR a1ec
ENCODING 204
SWIDTH 360 0
DWIDTH 8 0
BBX 8 9 0 2
BITMAP
7E
DB
DB
DB
7E
18
1E
1A
1E
ENDCHAR
STARTCHAR a1eb
ENCODING 205
SWIDTH 360 0
DWIDTH 8 0
BBX 8 9 0 2
BITMAP
7C
7E
D6
D7
D7
D6
D6
56
7C
ENDCHAR
STARTCHAR a1ea
ENCODING 206
SWIDTH 360 0
DWIDTH 8 0
BBX 8 9 0 2
BITMAP
7E
DB
DB
DB
7E
18
18
30
30
ENDCHAR
STARTCHAR 013e
ENCODING 207
SWIDTH 360 0
DWIDTH 8 0
BBX 0 0 0 0
BITMAP
ENDCHAR
STARTCHAR 00ba
ENCODING 208
SWIDTH 360 0
DWIDTH 8 0
BBX 6 11 0 2
BITMAP
18
6C
CC
CC
CC
CC
CC
CC
CC
DC
60
ENDCHAR
STARTCHAR 00bb
ENCODING 209
SWIDTH 360 0
DWIDTH 8 0
BBX 8 11 0 2
BITMAP
18
7C
CC
CC
CC
CF
CC
CC
CC
FC
60
ENDCHAR
STARTCHAR 00bc
ENCODING 210
SWIDTH 360 0
DWIDTH 8 0
BBX 8 11 0 2
BITMAP
78
CC
CC
CC
CC
7E
06
06
0C
18
1F
ENDCHAR
STARTCHAR 00bd
ENCODING 211
SWIDTH 360 0
DWIDTH 8 0
BBX 7 11 0 2
BITMAP
78
CC
CC
CC
CC
7E
06
06
0C
18
18
ENDCHAR
STARTCHAR 00be
ENCODING 212
SWIDTH 360 0
DWIDTH 8 0
BBX 8 11 0 2
BITMAP
78
CC
CC
CC
CC
7E
06
0C
0F
09
0F
ENDCHAR
STARTCHAR 00bf
ENCODING 213
SWIDTH 360 0
DWIDTH 8 0
BBX 6 11 0 2
BITMAP
30
30
78
CC
CC
CC
CC
CC
CC
FC
60
ENDCHAR
STARTCHAR 00c0
ENCODING 214
SWIDTH 360 0
DWIDTH 8 0
BBX 6 11 0 2
BITMAP
78
CC
CC
CC
CC
78
60
C0
C0
C0
C0
ENDCHAR
STARTCHAR 013e
ENCODING 215
SWIDTH 360 0
DWIDTH 8 0
BBX 0 0 0 0
BITMAP
ENDCHAR
STARTCHAR a2bd
ENCODING 216
SWIDTH 360 0
DWIDTH 8 0
BBX 6 10 1 2
BITMAP
CC
CC
CC
CC
FC
CC
CC
CC
CC
CC
ENDCHAR
STARTCHAR a2c3
ENCODING 217
SWIDTH 360 0
DWIDTH 8 0
BBX 7 10 1 2
BITMAP
D8
D8
D8
F8
D8
DE
D8
D8
D8
D8
ENDCHAR
STARTCHAR a2c4
ENCODING 218
SWIDTH 360 0
DWIDTH 8 0
BBX 7 10 1 2
BITMAP
D8
D8
D8
D8
F8
D8
D8
D8
DA
DE
ENDCHAR
STARTCHAR a2c5
ENCODING 219
SWIDTH 360 0
DWIDTH 8 0
BBX 6 10 1 2
BITMAP
CC
CC
CC
CC
FC
CC
CC
CC
0C
0C
ENDCHAR
STARTCHAR a2c6
ENCODING 220
SWIDTH 360 0
DWIDTH 8 0
BBX 7 10 1 2
BITMAP
D8
D8
D8
D8
F8
D8
DE
DA
DA
DE
ENDCHAR
STARTCHAR a2c7
ENCODING 221
SWIDTH 360 0
DWIDTH 8 0
BBX 7 10 0 2
BITMAP
F6
36
36
36
3E
36
36
36
36
36
ENDCHAR
STARTCHAR a2c8
ENCODING 222
SWIDTH 360 0
DWIDTH 8 0
BBX 6 10 1 2
BITMAP
CC
CC
CC
CC
FC
CC
CC
CC
C0
C0
ENDCHAR
STARTCHAR a2c5
ENCODING 223
SWIDTH 360 0
DWIDTH 8 0
BBX 8 12 0 0
BITMAP
CC
CC
CC
CC
FC
CC
CC
CC
0C
0C
33
33
ENDCHAR
STARTCHAR a1a5
ENCODING 224
SWIDTH 360 0
DWIDTH 8 0
BBX 8 10 0 2
BITMAP
E7
66
66
66
7E
66
66
66
66
66
ENDCHAR
STARTCHAR a1a7
ENCODING 225
SWIDTH 360 0
DWIDTH 8 0
BBX 8 10 0 2
BITMAP
EE
6C
6C
6C
7C
6F
6C
6C
6C
6C
ENDCHAR
STARTCHAR a1a6
ENCODING 226
SWIDTH 360 0
DWIDTH 8 0
BBX 8 10 0 2
BITMAP
EE
6C
6C
6C
7C
6C
6C
6C
6C
6F
ENDCHAR
STARTCHAR a1a5
ENCODING 227
SWIDTH 360 0
DWIDTH 8 0
BBX 8 10 0 2
BITMAP
E7
66
66
66
7E
66
66
66
06
06
ENDCHAR
STARTCHAR a1a4
ENCODING 228
SWIDTH 360 0
DWIDTH 8 0
BBX 8 10 0 2
BITMAP
EE
6C
6C
6C
7C
6C
6C
0F
0D
0F
ENDCHAR
STARTCHAR a1a3
ENCODING 229
SWIDTH 360 0
DWIDTH 8 0
BBX 8 11 0 2
BITMAP
F0
47
E6
66
66
7E
66
66
66
66
66
ENDCHAR
STARTCHAR a1a2
ENCODING 230
SWIDTH 360 0
DWIDTH 8 0
BBX 8 10 0 2
BITMAP
E7
66
66
66
7E
66
66
66
60
60
ENDCHAR
STARTCHAR 00d0
ENCODING 231
SWIDTH 360 0
DWIDTH 8 0
BBX 8 11 0 2
BITMAP
E7
66
66
7E
66
66
66
06
06
1F
1B
ENDCHAR
STARTCHAR a2ac
ENCODING 232
SWIDTH 360 0
DWIDTH 8 0
BBX 6 10 1 2
BITMAP
78
CC
CC
CC
C8
F8
30
30
30
30
ENDCHAR
STARTCHAR a2f9
ENCODING 233
SWIDTH 360 0
DWIDTH 8 0
BBX 6 10 1 2
BITMAP
78
CC
CC
CC
C8
F0
60
7C
60
60
ENDCHAR
STARTCHAR a2fa
ENCODING 234
SWIDTH 360 0
DWIDTH 8 0
BBX 7 10 1 2
BITMAP
78
CC
CC
CC
C8
F8
30
3E
36
30
ENDCHAR
STARTCHAR a2fb
ENCODING 235
SWIDTH 360 0
DWIDTH 8 0
BBX 6 10 1 2
BITMAP
78
CC
CC
CC
D8
60
18
38
E0
C0
ENDCHAR
STARTCHAR a2fc
ENCODING 236
SWIDTH 360 0
DWIDTH 8 0
BBX 7 10 1 2
BITMAP
78
CC
CC
CC
C8
F0
36
3A
36
30
ENDCHAR
STARTCHAR a2fd
ENCODING 237
SWIDTH 360 0
DWIDTH 8 0
BBX 7 10 1 2
BITMAP
78
CC
CC
CC
C8
70
36
DE
C0
C0
ENDCHAR
STARTCHAR a2fe
ENCODING 238
SWIDTH 360 0
DWIDTH 8 0
BBX 8 10 0 2
BITMAP
78
CC
CF
CC
C8
F0
30
30
30
30
ENDCHAR
STARTCHAR 013e
ENCODING 239
SWIDTH 360 0
DWIDTH 8 0
BBX 0 0 0 0
BITMAP
ENDCHAR
STARTCHAR a2a7
ENCODING 240
SWIDTH 360 0
DWIDTH 8 0
BBX 6 10 1 2
BITMAP
78
CC
CC
CC
F8
60
70
3C
CC
CC
ENDCHAR
STARTCHAR 00da
ENCODING 241
SWIDTH 360 0
DWIDTH 8 0
BBX 8 11 0 2
BITMAP
78
CC
CC
CC
F8
60
30
78
CF
CF
CC
ENDCHAR
STARTCHAR 00db
ENCODING 242
SWIDTH 360 0
DWIDTH 8 0
BBX 8 11 0 2
BITMAP
78
CC
CC
CC
F8
60
30
78
CC
CF
CF
ENDCHAR
STARTCHAR 00dc
ENCODING 243
SWIDTH 360 0
DWIDTH 8 0
BBX 7 11 0 2
BITMAP
78
CC
CC
CC
F8
60
30
7C
E6
06
06
ENDCHAR
STARTCHAR 00dd
ENCODING 244
SWIDTH 360 0
DWIDTH 8 0
BBX 8 11 0 2
BITMAP
78
CC
CC
CC
F8
60
30
7C
CF
C9
CF
ENDCHAR
STARTCHAR 00de
ENCODING 245
SWIDTH 360 0
DWIDTH 8 0
BBX 8 11 0 2
BITMAP
78
CC
CF
CC
F8
60
30
78
CC
CC
CC
ENDCHAR
STARTCHAR 00df
ENCODING 246
SWIDTH 360 0
DWIDTH 8 0
BBX 7 11 0 2
BITMAP
78
CC
CC
CC
F8
60
30
7E
C6
C0
C0
ENDCHAR
STARTCHAR a2a7
ENCODING 247
SWIDTH 360 0
DWIDTH 8 0
BBX 8 12 0 0
BITMAP
78
CC
CC
CC
F8
60
70
3C
CC
CC
33
33
ENDCHAR
STARTCHAR 00e1
ENCODING 248
SWIDTH 360 0
DWIDTH 8 0
BBX 6 11 0 2
BITMAP
78
CC
FC
CC
F8
60
30
78
CC
CC
CC
ENDCHAR
STARTCHAR 00e2
ENCODING 249
SWIDTH 360 0
DWIDTH 8 0
BBX 8 11 0 2
BITMAP
78
CC
FC
CC
F8
60
30
78
CF
CF
CC
ENDCHAR
STARTCHAR 00e3
ENCODING 250
SWIDTH 360 0
DWIDTH 8 0
BBX 8 11 0 2
BITMAP
78
CC
FC
CC
F8
60
30
7C
CC
CF
CF
ENDCHAR
STARTCHAR 00e4
ENCODING 251
SWIDTH 360 0
DWIDTH 8 0
BBX 7 11 0 2
BITMAP
78
CC
FC
CC
F8
60
30
7C
E6
06
06
ENDCHAR
STARTCHAR 00e5
ENCODING 252
SWIDTH 360 0
DWIDTH 8 0
BBX 8 11 0 2
BITMAP
78
CC
FC
CC
F8
60
30
7C
CF
C9
CF
ENDCHAR
STARTCHAR 00e6
ENCODING 253
SWIDTH 360 0
DWIDTH 8 0
BBX 8 11 0 2
BITMAP
78
CC
FF
CC
F8
60
30
78
CC
CC
CC
ENDCHAR
STARTCHAR 00e7
ENCODING 254
SWIDTH 360 0
DWIDTH 8 0
BBX 7 11 0 2
BITMAP
78
CC
FC
CC
F8
60
30
7E
C6
C0
C0
ENDCHAR
STARTCHAR 00e1
ENCODING 255
SWIDTH 360 0
DWIDTH 8 0
BBX 8 13 0 0
BITMAP
78
CC
FC
CC
F8
60
30
78
CC
CC
CC
33
33
ENDCHAR
STARTCHAR a2ad
ENCODING 256
SWIDTH 360 0
DWIDTH 8 0
BBX 8 11 0 1
BITMAP
FF
DB
3C
66
66
66
7C
30
1E
66
66
ENDCHAR
STARTCHAR a3a1
ENCODING 257
SWIDTH 360 0
DWIDTH 8 0
BBX 8 11 0 1
BITMAP
FF
DB
38
CC
CC
CC
F8
60
3F
CC
CC
ENDCHAR
STARTCHAR a3a2
ENCODING 258
SWIDTH 360 0
DWIDTH 8 0
BBX 8 11 0 1
BITMAP
FF
DB
38
CC
CC
CC
F8
60
3C
CC
CF
ENDCHAR
STARTCHAR a3a3
ENCODING 259
SWIDTH 360 0
DWIDTH 8 0
BBX 8 11 0 1
BITMAP
FF
DB
3C
66
66
66
7C
30
1E
66
06
ENDCHAR
STARTCHAR a3a4
ENCODING 260
SWIDTH 360 0
DWIDTH 8 0
BBX 8 11 0 1
BITMAP
FF
DB
3C
66
66
66
7C
30
1F
65
67
ENDCHAR
STARTCHAR a3a5
ENCODING 261
SWIDTH 360 0
DWIDTH 8 0
BBX 8 11 0 1
BITMAP
FF
DB
38
CC
CF
CC
F8
60
1E
66
66
ENDCHAR
STARTCHAR a3a6
ENCODING 262
SWIDTH 360 0
DWIDTH 8 0
BBX 7 11 1 1
BITMAP
FE
B6
78
CC
CC
CC
F8
60
3C
CC
C0
ENDCHAR
STARTCHAR a2ad
ENCODING 263
SWIDTH 360 0
DWIDTH 8 0
BBX 8 13 0 0
BITMAP
FF
DB
3C
66
66
66
7C
30
1E
66
66
1B
1B
ENDCHAR
STARTCHAR a2aa
ENCODING 264
SWIDTH 360 0
DWIDTH 8 0
BBX 6 10 1 2
BITMAP
DC
CC
0C
0C
18
18
38
30
30
30
ENDCHAR
STARTCHAR a2ed
ENCODING 265
SWIDTH 360 0
DWIDTH 8 0
BBX 7 10 1 2
BITMAP
FC
CC
0C
0C
18
1E
1E
30
30
30
ENDCHAR
STARTCHAR a2ee
ENCODING 266
SWIDTH 360 0
DWIDTH 8 0
BBX 7 10 1 2
BITMAP
DC
CC
0C
0C
18
18
18
30
32
3E
ENDCHAR
STARTCHAR a2ef
ENCODING 267
SWIDTH 360 0
DWIDTH 8 0
BBX 7 10 0 2
BITMAP
6E
66
06
06
06
1C
7C
E0
C0
C0
ENDCHAR
STARTCHAR a2f0
ENCODING 268
SWIDTH 360 0
DWIDTH 8 0
BBX 7 10 1 2
BITMAP
DC
CC
0C
0C
18
18
30
3E
32
3E
ENDCHAR
STARTCHAR a2f1
ENCODING 269
SWIDTH 360 0
DWIDTH 8 0
BBX 6 10 1 2
BITMAP
FC
AC
EC
0C
18
18
18
30
30
30
ENDCHAR
STARTCHAR a2f2
ENCODING 270
SWIDTH 360 0
DWIDTH 8 0
BBX 6 11 1 2
BITMAP
30
30
CC
CC
0C
18
18
18
30
30
30
ENDCHAR
STARTCHAR 013e
ENCODING 271
SWIDTH 360 0
DWIDTH 8 0
BBX 0 0 0 0
BITMAP
ENDCHAR
STARTCHAR 00f8
ENCODING 272
SWIDTH 360 0
DWIDTH 8 0
BBX 8 10 0 2
BITMAP
F0
18
18
1F
19
1F
18
18
18
18
ENDCHAR
STARTCHAR 013e
ENCODING 273
SWIDTH 360 0
DWIDTH 8 0
BBX 0 0 0 0
BITMAP
ENDCHAR
STARTCHAR 00f9
ENCODING 274
SWIDTH 360 0
DWIDTH 8 0
BBX 7 10 0 2
BITMAP
F0
18
18
1A
1A
1E
1A
1A
18
18
ENDCHAR
STARTCHAR 00fa
ENCODING 275
SWIDTH 360 0
DWIDTH 8 0
BBX 7 11 0 2
BITMAP
F0
D8
18
7C
66
06
06
06
06
06
06
ENDCHAR
STARTCHAR 00fb
ENCODING 276
SWIDTH 360 0
DWIDTH 8 0
BBX 7 11 0 2
BITMAP
F0
18
18
18
1E
12
1E
30
60
C0
C0
ENDCHAR
STARTCHAR 00fc
ENCODING 277
SWIDTH 360 0
DWIDTH 8 0
BBX 7 10 0 2
BITMAP
F2
1A
1E
1A
1A
18
18
18
18
18
ENDCHAR
STARTCHAR 013e
ENCODING 278
SWIDTH 360 0
DWIDTH 8 0
BBX 0 0 0 0
BITMAP
ENDCHAR
STARTCHAR 013e
ENCODING 279
SWIDTH 360 0
DWIDTH 8 0
BBX 0 0 0 0
BITMAP
ENDCHAR
STARTCHAR a2aa
ENCODING 280
SWIDTH 360 0
DWIDTH 8 0
BBX 6 10 1 2
BITMAP
DC
CC
0C
0C
18
18
38
30
30
30
ENDCHAR
STARTCHAR a2ed
ENCODING 281
SWIDTH 360 0
DWIDTH 8 0
BBX 7 10 1 2
BITMAP
FC
CC
0C
0C
18
1E
1E
30
30
30
ENDCHAR
STARTCHAR a2ee
ENCODING 282
SWIDTH 360 0
DWIDTH 8 0
BBX 7 10 1 2
BITMAP
DC
CC
0C
0C
18
18
18
30
32
3E
ENDCHAR
STARTCHAR a2ef
ENCODING 283
SWIDTH 360 0
DWIDTH 8 0
BBX 7 10 0 2
BITMAP
6E
66
06
06
06
1C
7C
E0
C0
C0
ENDCHAR
STARTCHAR a2f0
ENCODING 284
SWIDTH 360 0
DWIDTH 8 0
BBX 7 10 1 2
BITMAP
DC
CC
0C
0C
18
18
30
3E
32
3E
ENDCHAR
STARTCHAR a2f1
ENCODING 285
SWIDTH 360 0
DWIDTH 8 0
BBX 6 10 1 2
BITMAP
FC
AC
EC
0C
18
18
18
30
30
30
ENDCHAR
STARTCHAR a2f2
ENCODING 286
SWIDTH 360 0
DWIDTH 8 0
BBX 6 11 1 2
BITMAP
30
30
CC
CC
0C
18
18
18
30
30
30
ENDCHAR
STARTCHAR 013e
ENCODING 287
SWIDTH 360 0
DWIDTH 8 0
BBX 0 0 0 0
BITMAP
ENDCHAR
STARTCHAR a2bb
ENCODING 288
SWIDTH 360 0
DWIDTH 8 0
BBX 7 9 1 2
BITMAP
7C
7C
D6
D6
D6
D6
D6
D6
D6
ENDCHAR
STARTCHAR a1e9
ENCODING 289
SWIDTH 360 0
DWIDTH 8 0
BBX 8 8 0 3
BITMAP
7C
54
D6
D6
D7
D7
D6
D6
ENDCHAR
STARTCHAR a1e8
ENCODING 290
SWIDTH 360 0
DWIDTH 8 0
BBX 8 8 0 3
BITMAP
7C
54
D6
D6
D6
D6
D7
D7
ENDCHAR
STARTCHAR a1e7
ENCODING 291
SWIDTH 360 0
DWIDTH 8 0
BBX 7 8 1 3
BITMAP
7C
54
D6
D6
D6
D6
06
06
ENDCHAR
STARTCHAR a1e6
ENCODING 292
SWIDTH 360 0
DWIDTH 8 0
BBX 8 8 0 3
BITMAP
7C
54
D6
D6
D6
D7
D5
D7
ENDCHAR
STARTCHAR a1e5
ENCODING 293
SWIDTH 360 0
DWIDTH 8 0
BBX 8 9 0 2
BITMAP
7E
DB
DB
DB
0C
0C
0C
0C
0C
ENDCHAR
STARTCHAR a1e4
ENCODING 294
SWIDTH 360 0
DWIDTH 8 0
BBX 7 8 1 3
BITMAP
7C
54
D6
D6
D6
D6
C0
C0
ENDCHAR
STARTCHAR a1e7
ENCODING 295
SWIDTH 360 0
DWIDTH 8 0
BBX 8 10 0 1
BITMAP
7C
54
D6
D6
D6
D6
06
06
1B
1B
ENDCHAR
STARTCHAR a2a8
ENCODING 296
SWIDTH 360 0
DWIDTH 8 0
BBX 8 7 0 3
BITMAP
7E
5A
DB
DB
DB
FF
DB
ENDCHAR
STARTCHAR a2e1
ENCODING 297
SWIDTH 360 0
DWIDTH 8 0
BBX 8 7 0 3
BITMAP
7C
56
D6
D6
D7
FE
D6
ENDCHAR
STARTCHAR a2e2
ENCODING 298
SWIDTH 360 0
DWIDTH 8 0
BBX 8 7 0 3
BITMAP
7C
56
D6
D6
D6
FE
D7
ENDCHAR
STARTCHAR a2e3
ENCODING 299
SWIDTH 360 0
DWIDTH 8 0
BBX 8 7 0 3
BITMAP
7E
5A
DB
DB
FF
03
03
ENDCHAR
STARTCHAR a2e4
ENCODING 300
SWIDTH 360 0
DWIDTH 8 0
BBX 8 7 0 3
BITMAP
7E
5A
DB
DB
DB
FF
DB
ENDCHAR
STARTCHAR a2e5
ENCODING 301
SWIDTH 360 0
DWIDTH 8 0
BBX 8 8 0 4
BITMAP
7E
5A
DB
FF
DB
0C
0C
0C
ENDCHAR
STARTCHAR a2e6
ENCODING 302
SWIDTH 360 0
DWIDTH 8 0
BBX 8 7 0 3
BITMAP
7E
5A
DB
DB
DF
E0
C0
ENDCHAR
STARTCHAR a2e3
ENCODING 303
SWIDTH 360 0
DWIDTH 8 0
BBX 8 9 0 1
BITMAP
7E
5A
DB
DB
FF
03
03
0D
0D
ENDCHAR
STARTCHAR 0114
ENCODING 304
SWIDTH 360 0
DWIDTH 8 0
BBX 7 12 0 2
BITMAP
10
10
38
6C
44
44
6C
38
38
6C
C6
C6
ENDCHAR
STARTCHAR 0115
ENCODING 305
SWIDTH 360 0
DWIDTH 8 0
BBX 8 12 0 2
BITMAP
10
10
38
6C
44
44
6C
38
38
6F
C7
C6
ENDCHAR
STARTCHAR 0116
ENCODING 306
SWIDTH 360 0
DWIDTH 8 0
BBX 8 12 0 2
BITMAP
10
10
38
6C
44
44
6C
38
38
6C
C7
C7
ENDCHAR
STARTCHAR 0117
ENCODING 307
SWIDTH 360 0
DWIDTH 8 0
BBX 6 12 1 2
BITMAP
20
20
70
D8
88
88
D8
70
70
D8
0C
0C
ENDCHAR
STARTCHAR 0118
ENCODING 308
SWIDTH 360 0
DWIDTH 8 0
BBX 8 12 0 2
BITMAP
10
10
38
6C
44
44
6C
38
38
6F
C5
C7
ENDCHAR
STARTCHAR 0119
ENCODING 309
SWIDTH 360 0
DWIDTH 8 0
BBX 8 12 0 2
BITMAP
20
20
70
DF
88
88
D8
70
38
6C
C6
C6
ENDCHAR
STARTCHAR 011a
ENCODING 310
SWIDTH 360 0
DWIDTH 8 0
BBX 6 12 0 2
BITMAP
10
10
38
6C
44
44
6C
38
38
6C
C0
C0
ENDCHAR
STARTCHAR 0117
ENCODING 311
SWIDTH 360 0
DWIDTH 8 0
BBX 8 14 0 0
BITMAP
20
20
70
D8
88
88
D8
70
70
D8
0C
0C
33
33
ENDCHAR
STARTCHAR 011c
ENCODING 312
SWIDTH 360 0
DWIDTH 8 0
BBX 7 11 0 2
BITMAP
38
6C
44
44
6C
38
38
6C
C6
C6
C6
ENDCHAR
STARTCHAR 011d
ENCODING 313
SWIDTH 360 0
DWIDTH 8 0
BBX 8 11 0 2
BITMAP
38
6C
44
44
6C
38
38
6C
C7
C7
C6
ENDCHAR
STARTCHAR 011e
ENCODING 314
SWIDTH 360 0
DWIDTH 8 0
BBX 8 11 0 2
BITMAP
38
6C
44
44
6C
38
38
6C
C6
C7
C7
ENDCHAR
STARTCHAR 011f
ENCODING 315
SWIDTH 360 0
DWIDTH 8 0
BBX 7 11 0 2
BITMAP
38
6C
44
44
6C
38
38
6C
C6
06
06
ENDCHAR
STARTCHAR 0120
ENCODING 316
SWIDTH 360 0
DWIDTH 8 0
BBX 8 11 0 2
BITMAP
38
6C
44
44
6C
38
38
6C
C7
C5
C7
ENDCHAR
STARTCHAR 0121
ENCODING 317
SWIDTH 360 0
DWIDTH 8 0
BBX 8 11 0 2
BITMAP
38
6C
47
47
6C
38
38
6C
C6
C6
C6
ENDCHAR
STARTCHAR 0122
ENCODING 318
SWIDTH 360 0
DWIDTH 8 0
BBX 7 11 0 2
BITMAP
38
6C
44
44
6C
38
38
6C
C6
C0
C0
ENDCHAR
STARTCHAR 011f
ENCODING 319
SWIDTH 360 0
DWIDTH 8 0
BBX 8 13 0 0
BITMAP
38
6C
44
44
6C
38
38
6C
C6
06
06
1B
1B
ENDCHAR
STARTCHAR a2b6
ENCODING 320
SWIDTH 360 0
DWIDTH 8 0
BBX 6 9 1 3
BITMAP
78
CC
CC
CC
FC
CC
CC
CC
78
ENDCHAR
STARTCHAR a3d7
ENCODING 321
SWIDTH 360 0
DWIDTH 8 0
BBX 8 9 0 3
BITMAP
78
CC
CC
CC
FF
CF
CC
CC
78
ENDCHAR
STARTCHAR a3d8
ENCODING 322
SWIDTH 360 0
DWIDTH 8 0
BBX 8 10 0 2
BITMAP
7C
C6
DE
F6
C6
FC
0C
0C
0C
0F
ENDCHAR
STARTCHAR a3d9
ENCODING 323
SWIDTH 360 0
DWIDTH 8 0
BBX 7 10 0 2
BITMAP
7C
C6
DE
F6
C6
FC
0C
0C
0C
0C
ENDCHAR
STARTCHAR a3da
ENCODING 324
SWIDTH 360 0
DWIDTH 8 0
BBX 7 10 0 2
BITMAP
7C
C6
DE
F6
C6
FC
0C
0E
0A
0E
ENDCHAR
STARTCHAR a3db
ENCODING 325
SWIDTH 360 0
DWIDTH 8 0
BBX 6 10 1 2
BITMAP
E0
70
38
7C
CC
CC
FC
CC
CC
78
ENDCHAR
STARTCHAR a3dc
ENCODING 326
SWIDTH 360 0
DWIDTH 8 0
BBX 7 10 0 2
BITMAP
7C
C6
DE
F6
C6
FE
0C
18
30
30
ENDCHAR
STARTCHAR 013e
ENCODING 327
SWIDTH 360 0
DWIDTH 8 0
BBX 0 0 0 0
BITMAP
ENDCHAR
STARTCHAR a2a9
ENCODING 328
SWIDTH 360 0
DWIDTH 8 0
BBX 8 10 0 2
BITMAP
0C
0C
1C
38
60
F8
C8
C8
CF
FF
ENDCHAR
STARTCHAR a2e7
ENCODING 329
SWIDTH 360 0
DWIDTH 8 0
BBX 8 12 0 0
BITMAP
0C
0C
1C
30
78
C8
C8
CF
FF
18
30
30
ENDCHAR
STARTCHAR a2e8
ENCODING 330
SWIDTH 360 0
DWIDTH 8 0
BBX 8 10 0 2
BITMAP
0C
0C
1C
70
C0
F8
C8
CB
CB
FE
ENDCHAR
STARTCHAR a2e9
ENCODING 331
SWIDTH 360 0
DWIDTH 8 0
BBX 8 12 0 0
BITMAP
0C
0C
1C
30
60
F8
CC
CC
CF
FF
0C
0C
ENDCHAR
STARTCHAR a2ea
ENCODING 332
SWIDTH 360 0
DWIDTH 8 0
BBX 8 10 0 2
BITMAP
0C
0C
1C
30
70
D0
D7
D5
D5
FF
ENDCHAR
STARTCHAR a2eb
ENCODING 333
SWIDTH 360 0
DWIDTH 8 0
BBX 8 10 0 2
BITMAP
7E
C6
C0
F8
CC
CF
FF
0C
0C
3C
ENDCHAR
STARTCHAR a2ec
ENCODING 334
SWIDTH 360 0
DWIDTH 8 0
BBX 8 10 0 2
BITMAP
7F
C9
CF
C0
F8
CD
FF
0C
0C
3C
ENDCHAR
STARTCHAR a2e9
ENCODING 335
SWIDTH 360 0
DWIDTH 8 0
BBX 8 14 0 0
BITMAP
0C
0C
1C
30
60
F8
CC
CC
CF
FF
0C
0C
33
33
ENDCHAR
STARTCHAR a2b3
ENCODING 336
SWIDTH 360 0
DWIDTH 8 0
BBX 8 10 0 2
BITMAP
FF
DB
18
18
18
18
18
18
18
18
ENDCHAR
STARTCHAR a3c5
ENCODING 337
SWIDTH 360 0
DWIDTH 8 0
BBX 8 10 0 2
BITMAP
FF
DB
18
18
18
1E
18
18
18
18
ENDCHAR
STARTCHAR a3c6
ENCODING 338
SWIDTH 360 0
DWIDTH 8 0
BBX 8 10 0 2
BITMAP
FF
DB
18
18
18
18
18
18
18
1E
ENDCHAR
STARTCHAR a3c7
ENCODING 339
SWIDTH 360 0
DWIDTH 8 0
BBX 8 9 0 3
BITMAP
FF
DB
18
18
18
78
60
C0
C0
ENDCHAR
STARTCHAR a3c8
ENCODING 340
SWIDTH 360 0
DWIDTH 8 0
BBX 8 10 0 2
BITMAP
FF
DB
18
18
18
18
1E
1A
1A
1E
ENDCHAR
STARTCHAR a3c9
ENCODING 341
SWIDTH 360 0
DWIDTH 8 0
BBX 8 10 0 2
BITMAP
FF
DB
18
18
0C
0C
0C
0C
0C
0C
ENDCHAR
STARTCHAR a3ca
ENCODING 342
SWIDTH 360 0
DWIDTH 8 0
BBX 8 10 0 2
BITMAP
FF
DB
18
18
18
38
30
60
E0
C0
ENDCHAR
STARTCHAR a2b3
ENCODING 343
SWIDTH 360 0
DWIDTH 8 0
BBX 8 12 0 0
BITMAP
FF
DB
18
18
18
18
18
18
18
18
FF
C3
ENDCHAR
STARTCHAR a3b5
ENCODING 344
SWIDTH 360 0
DWIDTH 8 0
BBX 7 9 0 2
BITMAP
FE
EE
AA
AA
AE
E6
06
06
06
ENDCHAR
STARTCHAR a3d2
ENCODING 345
SWIDTH 360 0
DWIDTH 8 0
BBX 7 10 0 2
BITMAP
0C
0C
0C
38
70
C0
CC
82
9E
FC
ENDCHAR
STARTCHAR a2e8
ENCODING 346
SWIDTH 360 0
DWIDTH 8 0
BBX 8 10 0 2
BITMAP
0C
0C
1C
70
C0
F8
C8
CB
CB
FE
ENDCHAR
STARTCHAR 013e
ENCODING 347
SWIDTH 360 0
DWIDTH 8 0
BBX 0 0 0 0
BITMAP
ENDCHAR
STARTCHAR 013e
ENCODING 348
SWIDTH 360 0
DWIDTH 8 0
BBX 0 0 0 0
BITMAP
ENDCHAR
STARTCHAR 013e
ENCODING 349
SWIDTH 360 0
DWIDTH 8 0
BBX 0 0 0 0
BITMAP
ENDCHAR
STARTCHAR 013e
ENCODING 350
SWIDTH 360 0
DWIDTH 8 0
BBX 0 0 0 0
BITMAP
ENDCHAR
STARTCHAR 013e
ENCODING 351
SWIDTH 360 0
DWIDTH 8 0
BBX 0 0 0 0
BITMAP
ENDCHAR
STARTCHAR 013e
ENCODING 352
SWIDTH 360 0
DWIDTH 8 0
BBX 0 0 0 0
BITMAP
ENDCHAR
STARTCHAR a1cf
ENCODING 353
SWIDTH 360 0
DWIDTH 8 0
BBX 2 5 3 4
BITMAP
C0
C0
00
C0
C0
ENDCHAR
STARTCHAR 0140
ENCODING 354
SWIDTH 360 0
DWIDTH 8 0
BBX 5 5 1 4
BITMAP
D8
D8
00
D8
D8
ENDCHAR
STARTCHAR a1d0
ENCODING 355
SWIDTH 360 0
DWIDTH 8 0
BBX 6 7 1 4
BITMAP
FC
00
30
30
00
30
30
ENDCHAR
STARTCHAR a1dc
ENCODING 356
SWIDTH 360 0
DWIDTH 8 0
BBX 6 10 1 2
BITMAP
FC
00
30
30
00
00
30
30
00
FC
ENDCHAR
STARTCHAR 0143
ENCODING 357
SWIDTH 360 0
DWIDTH 8 0
BBX 6 7 1 4
BITMAP
30
30
00
FC
00
30
30
ENDCHAR
STARTCHAR a1db
ENCODING 358
SWIDTH 360 0
DWIDTH 8 0
BBX 6 6 1 4
BITMAP
C0
C0
1C
00
C0
C0
ENDCHAR
STARTCHAR 0145
ENCODING 359
SWIDTH 360 0
DWIDTH 8 0
BBX 2 8 3 4
BITMAP
C0
C0
00
C0
C0
00
C0
C0
ENDCHAR
STARTCHAR 0146
ENCODING 360
SWIDTH 360 0
DWIDTH 8 0
BBX 8 9 0 4
BITMAP
18
18
C3
DB
18
DB
C3
18
18
ENDCHAR
STARTCHAR 0147
ENCODING 361
SWIDTH 360 0
DWIDTH 8 0
BBX 7 13 0 1
BITMAP
FE
C6
00
30
30
70
E8
CC
CC
78
00
FE
C6
ENDCHAR
STARTCHAR 0148
ENCODING 362
SWIDTH 360 0
DWIDTH 8 0
BBX 8 13 0 1
BITMAP
FF
C3
3C
76
E6
FC
E0
7C
76
3C
00
FF
C3
ENDCHAR
STARTCHAR 0149
ENCODING 363
SWIDTH 360 0
DWIDTH 8 0
BBX 7 13 0 1
BITMAP
FE
C6
00
7C
6C
60
60
60
60
70
00
FE
86
ENDCHAR
STARTCHAR 014a
ENCODING 364
SWIDTH 360 0
DWIDTH 8 0
BBX 7 13 0 1
BITMAP
FE
C6
38
6C
6C
6C
6C
6C
6C
38
00
FE
C6
ENDCHAR
STARTCHAR 014b
ENCODING 365
SWIDTH 360 0
DWIDTH 8 0
BBX 8 13 0 1
BITMAP
FF
C3
18
18
30
7E
C6
C0
CC
7E
00
FF
C3
ENDCHAR
STARTCHAR 014c
ENCODING 366
SWIDTH 360 0
DWIDTH 8 0
BBX 8 13 0 1
BITMAP
FF
C3
00
7C
6C
0C
18
1E
32
3E
00
FF
C3
ENDCHAR
STARTCHAR 014d
ENCODING 367
SWIDTH 360 0
DWIDTH 8 0
BBX 8 13 0 1
BITMAP
FF
C3
00
7C
6C
0C
18
18
36
3E
00
FF
C3
ENDCHAR
STARTCHAR 014e
ENCODING 368
SWIDTH 360 0
DWIDTH 8 0
BBX 8 13 0 1
BITMAP
FF
C3
00
FF
DB
18
18
18
FF
C3
00
FF
C3
ENDCHAR
STARTCHAR 014f
ENCODING 369
SWIDTH 360 0
DWIDTH 8 0
BBX 8 13 0 1
BITMAP
FF
C3
00
66
66
7E
66
66
64
38
00
FF
C3
ENDCHAR
STARTCHAR 0150
ENCODING 370
SWIDTH 360 0
DWIDTH 8 0
BBX 6 13 1 1
BITMAP
FC
CC
00
30
30
30
30
30
30
30
00
FC
CC
ENDCHAR
STARTCHAR 0151
ENCODING 371
SWIDTH 360 0
DWIDTH 8 0
BBX 8 13 0 1
BITMAP
FF
C3
00
7E
5A
30
3C
66
66
66
00
FF
C3
ENDCHAR
STARTCHAR 0152
ENCODING 372
SWIDTH 360 0
DWIDTH 8 0
BBX 8 13 0 1
BITMAP
FF
C3
00
6E
DB
DB
DB
DB
DB
73
00
FF
C3
ENDCHAR
STARTCHAR 0153
ENCODING 373
SWIDTH 360 0
DWIDTH 8 0
BBX 8 13 0 1
BITMAP
FF
C3
00
DB
DB
DF
DB
73
03
03
00
FF
C3
ENDCHAR
STARTCHAR 0154
ENCODING 374
SWIDTH 360 0
DWIDTH 8 0
BBX 8 13 0 1
BITMAP
FF
C3
00
66
66
66
3C
0C
0C
0C
00
FF
C3
ENDCHAR
STARTCHAR 0155
ENCODING 375
SWIDTH 360 0
DWIDTH 8 0
BBX 8 13 0 1
BITMAP
FF
C3
00
FF
DB
1C
0C
0C
7F
63
00
FF
C3
ENDCHAR
STARTCHAR 0156
ENCODING 376
SWIDTH 360 0
DWIDTH 8 0
BBX 8 13 0 1
BITMAP
FF
C3
00
3E
65
C5
C7
C0
C0
7E
06
FF
C3
ENDCHAR
STARTCHAR 0157
ENCODING 377
SWIDTH 360 0
DWIDTH 8 0
BBX 7 13 0 1
BITMAP
FE
C6
00
FE
EE
6C
6C
6C
6C
6C
00
FE
C6
ENDCHAR
STARTCHAR 0158
ENCODING 378
SWIDTH 360 0
DWIDTH 8 0
BBX 8 13 0 1
BITMAP
FF
C3
78
6C
08
1C
06
0C
18
18
00
FF
C3
ENDCHAR
STARTCHAR 0159
ENCODING 379
SWIDTH 360 0
DWIDTH 8 0
BBX 8 13 0 1
BITMAP
FF
C3
3C
66
66
2C
30
30
30
30
00
FF
C3
ENDCHAR
STARTCHAR 015a
ENCODING 380
SWIDTH 360 0
DWIDTH 8 0
BBX 8 13 0 1
BITMAP
FF
C3
66
99
99
AA
CC
CC
CC
CC
00
FF
C3
ENDCHAR
STARTCHAR 013e
ENCODING 381
SWIDTH 360 0
DWIDTH 8 0
BBX 0 0 0 0
BITMAP
ENDCHAR
STARTCHAR 013e
ENCODING 382
SWIDTH 360 0
DWIDTH 8 0
BBX 0 0 0 0
BITMAP
ENDCHAR
STARTCHAR 013e
ENCODING 383
SWIDTH 360 0
DWIDTH 8 0
BBX 0 0 0 0
BITMAP
ENDCHAR
STARTCHAR a1c2
ENCODING 384
SWIDTH 360 0
DWIDTH 8 0
BBX 4 9 2 3
BITMAP
60
60
00
60
60
F0
F0
F0
60
ENDCHAR
STARTCHAR a1c3
ENCODING 385
SWIDTH 360 0
DWIDTH 8 0
BBX 2 2 2 3
BITMAP
C0
C0
ENDCHAR
STARTCHAR 015e
ENCODING 386
SWIDTH 360 0
DWIDTH 8 0
BBX 8 7 0 4
BITMAP
1B
36
6C
D8
6C
36
1B
ENDCHAR
STARTCHAR 015f
ENCODING 387
SWIDTH 360 0
DWIDTH 8 0
BBX 8 7 0 4
BITMAP
D8
6C
36
1B
36
6C
D8
ENDCHAR
STARTCHAR a1e0
ENCODING 388
SWIDTH 360 0
DWIDTH 8 0
BBX 7 9 1 3
BITMAP
7C
C6
C6
0C
18
18
00
18
18
ENDCHAR
ENDFONT
